<?xml version="1.0" encoding="iso-8859-1"?>
<!-- Generator: Adobe Illustrator 19.0.0, SVG Export Plug-In . SVG Version: 6.00 Build 0)  -->
<svg xmlns="http://www.w3.org/2000/svg" xmlns:xlink="http://www.w3.org/1999/xlink" version="1.1" id="Capa_1" x="0px" y="0px" viewBox="0 0 512 512" style="enable-background:new 0 0 512 512;" xml:space="preserve" width="512" height="512">
<g>
	<path style="fill:#C3DDFF;" d="M96.677,307.968c-3.226-3.226-8.452-3.226-11.677,0l-2.419,2.419l-2.419-2.419   c-3.226-3.226-8.452-3.226-11.677,0s-3.226,8.452,0,11.677l2.419,2.419l-2.419,2.419c-3.226,3.226-3.226,8.452,0,11.677   c1.613,1.613,3.726,2.419,5.839,2.419c2.113,0,4.226-0.806,5.839-2.419l2.419-2.419L85,336.161   c1.613,1.613,3.726,2.419,5.839,2.419c2.113,0,4.226-0.806,5.839-2.419c3.226-3.226,3.226-8.452,0-11.677l-2.419-2.419l2.419-2.419   C99.903,316.419,99.903,311.194,96.677,307.968z"/>
	<path style="fill:#C3DDFF;" d="M179.258,423.581c-3.226-3.226-8.452-3.226-11.677,0L165.161,426l-2.419-2.419   c-3.226-3.226-8.452-3.226-11.677,0c-3.226,3.226-3.226,8.452,0,11.677l2.419,2.419l-2.419,2.419   c-3.226,3.226-3.226,8.452,0,11.677c1.613,1.613,3.726,2.419,5.839,2.419s4.226-0.806,5.839-2.419l2.419-2.419l2.419,2.419   c1.613,1.613,3.726,2.419,5.839,2.419s4.226-0.806,5.839-2.419c3.226-3.226,3.226-8.452,0-11.677l-2.419-2.419l2.419-2.419   C182.484,432.032,182.484,426.806,179.258,423.581z"/>
	<path style="fill:#DBEAFF;" d="M132.129,371.613c0-4.56-3.694-8.258-8.258-8.258c-4.565,0-8.258,3.698-8.258,8.258   c-4.565,0-8.258,3.698-8.258,8.258s3.694,8.258,8.258,8.258c0,4.56,3.694,8.258,8.258,8.258c4.565,0,8.258-3.698,8.258-8.258   c4.565,0,8.258-3.698,8.258-8.258S136.694,371.613,132.129,371.613z"/>
	<path style="fill:#DBEAFF;" d="M214.71,487.226c0-4.56-3.694-8.258-8.258-8.258s-8.258,3.698-8.258,8.258   c-4.565,0-8.258,3.698-8.258,8.258c0,4.56,3.694,8.258,8.258,8.258c0,4.56,3.694,8.258,8.258,8.258s8.258-3.698,8.258-8.258   c4.565,0,8.258-3.698,8.258-8.258C222.968,490.923,219.274,487.226,214.71,487.226z"/>
	<path style="fill:#DBEAFF;" d="M181.677,313.806c0-4.56-3.694-8.258-8.258-8.258s-8.258,3.698-8.258,8.258   c-4.565,0-8.258,3.698-8.258,8.258s3.694,8.258,8.258,8.258c0,4.56,3.694,8.258,8.258,8.258s8.258-3.698,8.258-8.258   c4.565,0,8.258-3.698,8.258-8.258S186.242,313.806,181.677,313.806z"/>
	<path style="fill:#C3DDFF;" d="M228.806,365.774c-3.226-3.226-8.452-3.226-11.677,0l-2.419,2.419l-2.419-2.419   c-3.226-3.226-8.452-3.226-11.677,0c-3.226,3.226-3.226,8.452,0,11.677l2.419,2.419l-2.419,2.419   c-3.226,3.226-3.226,8.452,0,11.677c1.613,1.613,3.726,2.419,5.839,2.419s4.226-0.806,5.839-2.419l2.419-2.419l2.419,2.419   c1.613,1.613,3.726,2.419,5.839,2.419s4.226-0.806,5.839-2.419c3.226-3.226,3.226-8.452,0-11.677l-2.419-2.419l2.419-2.419   C232.032,374.226,232.032,369,228.806,365.774z"/>
	<path style="fill:#DBEAFF;" d="M264.258,429.419c0-4.56-3.694-8.258-8.258-8.258s-8.258,3.698-8.258,8.258   c-4.565,0-8.258,3.698-8.258,8.258s3.694,8.258,8.258,8.258c0,4.56,3.694,8.258,8.258,8.258s8.258-3.698,8.258-8.258   c4.565,0,8.258-3.698,8.258-8.258S268.823,429.419,264.258,429.419z"/>
	<path style="fill:#C3DDFF;" d="M311.387,481.387c-3.226-3.226-8.452-3.226-11.677,0l-2.419,2.419l-2.419-2.419   c-3.226-3.226-8.452-3.226-11.677,0c-3.226,3.226-3.226,8.452,0,11.677l2.419,2.419l-2.419,2.419   c-3.226,3.226-3.226,8.452,0,11.677c1.613,1.613,3.726,2.419,5.839,2.419s4.226-0.806,5.839-2.419l2.419-2.419l2.419,2.419   c1.613,1.613,3.726,2.419,5.839,2.419c2.113,0,4.226-0.806,5.839-2.419c3.226-3.226,3.226-8.452,0-11.677l-2.419-2.419l2.419-2.419   C314.613,489.839,314.613,484.613,311.387,481.387z"/>
	<path style="fill:#C3DDFF;" d="M278.355,324.484l-2.419-2.419l2.419-2.419c3.226-3.226,3.226-8.452,0-11.677   c-3.226-3.226-8.452-3.226-11.677,0l-2.419,2.419l-2.419-2.419c-3.226-3.226-8.452-3.226-11.677,0   c-3.226,3.226-3.226,8.452,0,11.677l2.419,2.419l-2.419,2.419c-3.226,3.226-3.226,8.452,0,11.677   c1.613,1.613,3.726,2.419,5.839,2.419c2.113,0,4.226-0.806,5.839-2.419l2.419-2.419l2.419,2.419   c1.613,1.613,3.726,2.419,5.839,2.419c2.113,0,4.226-0.806,5.839-2.419C281.581,332.935,281.581,327.71,278.355,324.484z"/>
	<path style="fill:#C3DDFF;" d="M360.935,423.581c-3.226-3.226-8.452-3.226-11.677,0L346.839,426l-2.419-2.419   c-3.226-3.226-8.452-3.226-11.677,0c-3.226,3.226-3.226,8.452,0,11.677l2.419,2.419l-2.419,2.419   c-3.226,3.226-3.226,8.452,0,11.677c1.613,1.613,3.726,2.419,5.839,2.419c2.113,0,4.226-0.806,5.839-2.419l2.419-2.419l2.419,2.419   c1.613,1.613,3.726,2.419,5.839,2.419s4.226-0.806,5.839-2.419c3.226-3.226,3.226-8.452,0-11.677l-2.419-2.419l2.419-2.419   C364.161,432.032,364.161,426.806,360.935,423.581z"/>
	<path style="fill:#DBEAFF;" d="M313.806,371.613c0-4.56-3.694-8.258-8.258-8.258c-4.565,0-8.258,3.698-8.258,8.258   c-4.565,0-8.258,3.698-8.258,8.258s3.694,8.258,8.258,8.258c0,4.56,3.694,8.258,8.258,8.258c4.565,0,8.258-3.698,8.258-8.258   c4.565,0,8.258-3.698,8.258-8.258S318.371,371.613,313.806,371.613z"/>
	<path style="fill:#DBEAFF;" d="M396.387,487.226c0-4.56-3.694-8.258-8.258-8.258s-8.258,3.698-8.258,8.258   c-4.565,0-8.258,3.698-8.258,8.258c0,4.56,3.694,8.258,8.258,8.258c0,4.56,3.694,8.258,8.258,8.258s8.258-3.698,8.258-8.258   c4.565,0,8.258-3.698,8.258-8.258C404.645,490.923,400.952,487.226,396.387,487.226z"/>
	<path style="fill:#DBEAFF;" d="M363.355,313.806c0-4.56-3.694-8.258-8.258-8.258s-8.258,3.698-8.258,8.258   c-4.565,0-8.258,3.698-8.258,8.258s3.694,8.258,8.258,8.258c0,4.56,3.694,8.258,8.258,8.258s8.258-3.698,8.258-8.258   c4.565,0,8.258-3.698,8.258-8.258S367.919,313.806,363.355,313.806z"/>
	<path style="fill:#C3DDFF;" d="M410.484,365.774c-3.226-3.226-8.452-3.226-11.677,0l-2.419,2.419l-2.419-2.419   c-3.226-3.226-8.452-3.226-11.677,0c-3.226,3.226-3.226,8.452,0,11.677l2.419,2.419l-2.419,2.419   c-3.226,3.226-3.226,8.452,0,11.677c1.613,1.613,3.726,2.419,5.839,2.419c2.113,0,4.226-0.806,5.839-2.419l2.419-2.419l2.419,2.419   c1.613,1.613,3.726,2.419,5.839,2.419c2.113,0,4.226-0.806,5.839-2.419c3.226-3.226,3.226-8.452,0-11.677l-2.419-2.419l2.419-2.419   C413.71,374.226,413.71,369,410.484,365.774z"/>
	<path style="fill:#DBEAFF;" d="M445.935,429.419c0-4.56-3.694-8.258-8.258-8.258s-8.258,3.698-8.258,8.258   c-4.565,0-8.258,3.698-8.258,8.258s3.694,8.258,8.258,8.258c0,4.56,3.694,8.258,8.258,8.258s8.258-3.698,8.258-8.258   c4.565,0,8.258-3.698,8.258-8.258S450.5,429.419,445.935,429.419z"/>
	<path style="fill:#C3DDFF;" d="M493.065,481.387c-3.226-3.226-8.452-3.226-11.677,0l-2.419,2.419l-2.419-2.419   c-3.226-3.226-8.452-3.226-11.677,0c-3.226,3.226-3.226,8.452,0,11.677l2.419,2.419l-2.419,2.419   c-3.226,3.226-3.226,8.452,0,11.677c1.613,1.613,3.726,2.419,5.839,2.419c2.113,0,4.226-0.806,5.839-2.419l2.419-2.419l2.419,2.419   c1.613,1.613,3.726,2.419,5.839,2.419c2.113,0,4.226-0.806,5.839-2.419c3.226-3.226,3.226-8.452,0-11.677l-2.419-2.419l2.419-2.419   C496.29,489.839,496.29,484.613,493.065,481.387z"/>
	<path style="fill:#C3DDFF;" d="M460.032,324.484l-2.419-2.419l2.419-2.419c3.226-3.226,3.226-8.452,0-11.677s-8.452-3.226-11.677,0   l-2.419,2.419l-2.419-2.419c-3.226-3.226-8.452-3.226-11.677,0s-3.226,8.452,0,11.677l2.419,2.419l-2.419,2.419   c-3.226,3.226-3.226,8.452,0,11.677c1.613,1.613,3.726,2.419,5.839,2.419c2.113,0,4.226-0.806,5.839-2.419l2.419-2.419l2.419,2.419   c1.613,1.613,3.726,2.419,5.839,2.419c2.113,0,4.226-0.806,5.839-2.419C463.258,332.935,463.258,327.71,460.032,324.484z"/>
	<path style="fill:#DBEAFF;" d="M495.484,371.613c0-4.56-3.694-8.258-8.258-8.258s-8.258,3.698-8.258,8.258   c-4.565,0-8.258,3.698-8.258,8.258s3.694,8.258,8.258,8.258c0,4.56,3.694,8.258,8.258,8.258s8.258-3.698,8.258-8.258   c4.565,0,8.258-3.698,8.258-8.258S500.048,371.613,495.484,371.613z"/>
	<path style="fill:#DBEAFF;" d="M437.677,115.613c-1.673,0-3.31,0.141-4.955,0.25c-17.105-29.731-49.12-49.798-85.884-49.798   c-11.008,0-21.56,1.869-31.453,5.181C293.359,28.938,249.191,0,198.194,0C130.701,0,75.132,50.638,67.15,115.975   C29.47,119.585,0,151.309,0,189.935c0,41.047,33.275,74.323,74.323,74.323h363.355c41.047,0,74.323-33.276,74.323-74.323   C512,148.888,478.725,115.613,437.677,115.613z"/>
	<path style="fill:#C3DDFF;" d="M231.226,247.742c-68.412,0-123.871-55.459-123.871-123.871   c0-62.988,47.195-114.906,108.045-122.757C209.81,0.391,203.982,0,198.194,0C130.701,0,75.132,50.638,67.15,115.975   C29.47,119.585,0,151.309,0,189.935c0,41.047,33.275,74.323,74.323,74.323h363.355c17.685,0,33.959-6.202,46.719-16.516H231.226z"/>
	<path style="fill:#C3DDFF;" d="M326.645,101.036c0.911,3.782,4.29,6.323,8.016,6.323c0.645,0,1.29-0.073,1.944-0.23   c4.435-1.069,7.161-5.528,6.089-9.964c-2.536-10.525-6.289-20.524-10.835-29.948c-5.633,0.875-11.086,2.235-16.373,3.999   C320.289,80.515,324.1,90.476,326.645,101.036z"/>
	<path style="fill:#C3DDFF;" d="M452.059,117c-4.663-0.917-9.449-1.387-14.381-1.387c-1.652,0-3.409,0.133-5.038,0.24   c5.995,10.313,10.231,21.779,12.127,34.054c0.629,4.081,4.145,6.996,8.153,6.996c0.419,0,0.839-0.032,1.266-0.097   c4.508-0.698,7.597-4.915,6.903-9.423C459.432,136.65,456.33,126.445,452.059,117z"/>
</g>















</svg>
