<svg id="Layer_1" enable-background="new 0 0 512.012 512.012" height="512" viewBox="0 0 512.012 512.012" width="512" xmlns="http://www.w3.org/2000/svg"><g><path d="m439.815 122.617c-2.761-41.088-36.838-73.853-78.368-74.595-41.014-67.337-140.58-62.947-175.278 8.018-35.264-.998-67.679 21.548-78.508 56.086-42.102 2.263-75.654 37.229-75.654 79.884 0 56.056 56.441 94.638 108.415 74.799 25.149 39.813 78.632 48.946 115.585 21.193 36.915 27.724 90.408 18.663 115.585-21.193 51.947 19.829 108.415-18.712 108.415-74.799-.001-28.967-15.279-55.132-40.192-69.393z" fill="#edebfd"/><path d="m369.376 270.11c-20.594 29.331-57.178 40.355-89.31 30.23 17.86-5.59 33.3-17.35 43.52-33.53 14.723 5.613 30.747 6.636 45.79 3.3z" fill="#d2d2fc"/><path d="m480.006 192.01c0 54.164-52.871 92.493-104.01 76.33 32.42-10.22 56.01-40.57 56.01-76.33 0-28.97-15.28-55.13-40.19-69.39-2.76-41.09-36.84-73.86-78.37-74.6-13.88-22.79-36.08-38.84-61.46-45.1 42.157-10.403 86.587 7.538 109.46 45.1 41.53.74 75.61 33.51 78.37 74.6 24.91 14.26 40.19 40.42 40.19 69.39z" fill="#d2d2fc"/><path d="m304.006 376.01h-32v-48c0-8.136-10.807-11.064-14.91-4.031l-56 96c-3.105 5.324.74 12.031 6.91 12.031h31.16l-7.12 71.204c-.872 8.698 10.924 12.24 15.019 4.561l64-120c2.834-5.316-1.017-11.765-7.059-11.765z" fill="#f1cc76"/><path d="m272.006 328.01v48h-32v-22.73l17.09-29.3c4.103-7.034 14.91-4.106 14.91 4.03z" fill="#ebb15d"/><path d="m311.066 387.77-64 120c-4.097 7.705-15.89 4.133-15.02-4.56l3.36-33.57 43.66-81.87c2.838-5.31-1.019-11.76-7.06-11.76h32c6.046 0 9.896 6.453 7.06 11.76z" fill="#ebb15d"/><g fill="#a0e1fd"><path d="m104.007 336.012c-.839 0-1.691-.133-2.531-.412-4.191-1.397-6.456-5.928-5.06-10.12l8-24c1.398-4.191 5.927-6.454 10.12-5.06 4.191 1.397 6.456 5.928 5.06 10.12l-8 24c-1.118 3.352-4.239 5.472-7.589 5.472z"/><path d="m48.007 368.012c-.839 0-1.691-.133-2.531-.412-4.191-1.397-6.456-5.928-5.06-10.12l8-24c1.398-4.19 5.928-6.453 10.12-5.06 4.191 1.397 6.456 5.928 5.06 10.12l-8 24c-1.118 3.352-4.239 5.472-7.589 5.472z"/><path d="m80.007 408.012c-.839 0-1.691-.133-2.531-.412-4.191-1.397-6.456-5.928-5.06-10.12l8-24c1.398-4.19 5.927-6.453 10.12-5.06 4.191 1.397 6.456 5.928 5.06 10.12l-8 24c-1.118 3.352-4.239 5.472-7.589 5.472z"/><path d="m64.007 472.012c-.839 0-1.691-.133-2.531-.412-4.191-1.397-6.456-5.928-5.06-10.12l8-24c1.398-4.19 5.929-6.453 10.12-5.06 4.191 1.397 6.456 5.928 5.06 10.12l-8 24c-1.118 3.352-4.239 5.472-7.589 5.472z"/><path d="m128.007 448.012c-.839 0-1.691-.133-2.531-.412-4.191-1.397-6.456-5.928-5.06-10.12l8-24c1.398-4.19 5.929-6.453 10.12-5.06 4.191 1.397 6.456 5.928 5.06 10.12l-8 24c-1.118 3.352-4.239 5.472-7.589 5.472z"/><path d="m104.007 512.012c-.839 0-1.691-.133-2.531-.412-4.191-1.397-6.456-5.928-5.06-10.12l8-24c1.398-4.19 5.927-6.453 10.12-5.06 4.191 1.397 6.456 5.928 5.06 10.12l-8 24c-1.118 3.352-4.239 5.472-7.589 5.472z"/><path d="m168.007 496.012c-.839 0-1.691-.133-2.531-.412-4.191-1.397-6.456-5.928-5.06-10.12l8-24c1.398-4.19 5.929-6.454 10.12-5.06 4.191 1.397 6.456 5.928 5.06 10.12l-8 24c-1.118 3.352-4.239 5.472-7.589 5.472z"/><path d="m144.007 376.012c-.839 0-1.691-.133-2.531-.412-4.191-1.397-6.456-5.928-5.06-10.12l8-24c1.398-4.19 5.927-6.454 10.12-5.06 4.191 1.397 6.456 5.928 5.06 10.12l-8 24c-1.118 3.352-4.239 5.472-7.589 5.472z"/><path d="m192.007 376.012c-.839 0-1.691-.133-2.531-.412-4.191-1.397-6.456-5.928-5.06-10.12l8-24c1.398-4.19 5.929-6.454 10.12-5.06 4.191 1.397 6.456 5.928 5.06 10.12l-8 24c-1.118 3.352-4.239 5.472-7.589 5.472z"/><path d="m360.007 368.012c-.839 0-1.691-.133-2.531-.412-4.191-1.397-6.456-5.928-5.06-10.12l8-24c1.398-4.19 5.928-6.453 10.12-5.06 4.191 1.397 6.456 5.928 5.06 10.12l-8 24c-1.118 3.352-4.239 5.472-7.589 5.472z"/><path d="m424.007 344.012c-.839 0-1.691-.133-2.531-.412-4.191-1.397-6.456-5.928-5.06-10.12l8-24c1.398-4.19 5.928-6.453 10.12-5.06 4.191 1.397 6.456 5.928 5.06 10.12l-8 24c-1.118 3.352-4.239 5.472-7.589 5.472z"/><path d="m408.007 408.012c-.839 0-1.691-.133-2.531-.412-4.191-1.397-6.456-5.928-5.06-10.12l8-24c1.398-4.19 5.928-6.453 10.12-5.06 4.191 1.397 6.456 5.928 5.06 10.12l-8 24c-1.118 3.352-4.239 5.472-7.589 5.472z"/><path d="m336.007 432.012c-.839 0-1.691-.133-2.531-.412-4.191-1.397-6.456-5.928-5.06-10.12l8-24c1.398-4.19 5.929-6.453 10.12-5.06 4.191 1.397 6.456 5.928 5.06 10.12l-8 24c-1.118 3.352-4.239 5.472-7.589 5.472z"/><path d="m320.007 496.012c-.839 0-1.691-.133-2.531-.412-4.191-1.397-6.456-5.928-5.06-10.12l8-24c1.398-4.19 5.928-6.454 10.12-5.06 4.191 1.397 6.456 5.928 5.06 10.12l-8 24c-1.118 3.352-4.239 5.472-7.589 5.472z"/><path d="m384.007 472.012c-.839 0-1.691-.133-2.531-.412-4.191-1.397-6.456-5.928-5.06-10.12l8-24c1.398-4.19 5.928-6.453 10.12-5.06 4.191 1.397 6.456 5.928 5.06 10.12l-8 24c-1.118 3.352-4.239 5.472-7.589 5.472z"/></g></g></svg>